[img]http://leetleech.org/images/94590458602038733402.jpg[/img]

User Rating:
3.6/10   130 votes 

Director:
James Van Alden

Writer:
James Van Alden (writer)

Release Date:
15 April 2010 (USA) 

Genre:
Comedy

Plot:
Neal is a good looking, smooth talking, killer deal closer
who can sell anything to anyone at any time. For Neal, sales
is just a numbers game; you can't sell to everyone, but you
make enough calls in one day and you will make money. For
Catherine, sales is nothing but stress and hard work. As the
manager of a failing sales team Catherine's job is on the
line, and her boss has called in Neal to turn things around
Will Neal's methods help Catherine's sales team, or will his
smooth talking get them both into trouble?

[img]http://leetleech.org/images/04211155958951097801.jpg[/img]

Video
ID                               : 0
Format                           : MPEG-4 Visual
Format profile                   : Advanced Simple@L5
Format settings, BVOP            : Yes
Format settings, QPel            : No
Format settings, GMC             : No warppoints
Format settings, Matrix          : Default (H.263)
Muxing mode                      : Packed bitstream
Codec ID                         : XVID
Codec ID/Hint                    : XviD
Duration                         : 1h 15mn
Bit rate                         : 1 151 Kbps
Width                            : 640 pixels
Height                           : 352 pixels
Display aspect ratio             : 16:9
Frame rate                       : 23.976 fps
Resolution                       : 8 bits
Colorimetry                      : 4:2:0
Scan type                        : Progressive
Bits/(Pixel*Frame)               : 0.213
Stream size                      : 625 MiB (89%)
Writing library                  : XviD 1.2.1 (UTC 2008-12-04)

Audio
ID                               : 1
Format                           : MPEG Audio
Format version                   : Version 1
Format profile                   : Layer 3
Mode                             : Joint stereo
Codec ID                         : 55
Codec ID/Hint                    : MP3
Duration                         : 1h 15mn
Bit rate mode                    : Constant
Bit rate                         : 128 Kbps
Channel(s)                       : 2 channels
Sampling rate                    : 48.0 KHz
Stream size                      : 69.4 MiB (10%)
Alignment                        : Aligned on interleaves
Interleave, duration             : 42 ms (1.00 video frame)
Interleave, preload duration     : 504 ms

URL: http://www.imdb.com/title/tt1283542/
TRAILER: http://www.imdb.com/video/screenplay/vi2332690201/